<svg width="28" height="28" viewBox="0 0 28 28" fill="none" xmlns="http://www.w3.org/2000/svg">
<path d="M23.1087 21.875L26.25 18.7337L25.0163 17.5L21.875 20.6413L18.7337 17.5L17.5 18.7337L20.6413 21.875L17.5 25.0163L18.7337 26.25L21.875 23.1087L25.0163 26.25L26.25 25.0163L23.1087 21.875Z" fill="white"/>
<path d="M21.875 4.375H19.25V3.5C19.2486 3.0363 19.0638 2.59198 18.7359 2.26409C18.408 1.9362 17.9637 1.75138 17.5 1.75H10.5C10.0363 1.75138 9.59198 1.9362 9.26409 2.26409C8.9362 2.59198 8.75138 3.0363 8.75 3.5V4.375H6.125C5.6613 4.37638 5.21698 4.5612 4.88909 4.88909C4.5612 5.21698 4.37638 5.6613 4.375 6.125V24.5C4.37638 24.9637 4.5612 25.408 4.88909 25.7359C5.21698 26.0638 5.6613 26.2486 6.125 26.25H14V24.5H6.125V6.125H8.75V8.75H19.25V6.125H21.875V14.875H23.625V6.125C23.6236 5.6613 23.4388 5.21698 23.1109 4.88909C22.783 4.5612 22.3387 4.37638 21.875 4.375ZM17.5 7H10.5V3.5H17.5V7Z" fill="white"/>
</svg>
