<svg width="28" height="28" viewBox="0 0 28 28" fill="none" xmlns="http://www.w3.org/2000/svg">
<path d="M19.25 22.75C20.2165 22.75 21 21.9665 21 21C21 20.0335 20.2165 19.25 19.25 19.25C18.2835 19.25 17.5 20.0335 17.5 21C17.5 21.9665 18.2835 22.75 19.25 22.75Z" fill="white"/>
<path d="M26.0549 20.5441C25.5142 19.1668 24.5813 17.9784 23.3717 17.1262C22.1621 16.274 20.729 15.7955 19.25 15.75C17.771 15.7955 16.3379 16.274 15.1283 17.1262C13.9187 17.9784 12.9858 19.1668 12.4451 20.5441L12.25 21L12.4451 21.4567C12.9859 22.8339 13.9189 24.0222 15.1285 24.8742C16.3381 25.7262 17.7711 26.2046 19.25 26.25C20.7289 26.2046 22.1619 25.7262 23.3715 24.8742C24.5811 24.0222 25.5141 22.8339 26.0549 21.4567L26.25 21L26.0549 20.5441ZM19.25 24.5C18.5578 24.5 17.8811 24.2947 17.3055 23.9101C16.7299 23.5256 16.2813 22.9789 16.0164 22.3394C15.7515 21.6999 15.6822 20.9961 15.8173 20.3172C15.9523 19.6383 16.2856 19.0146 16.7751 18.5251C17.2646 18.0356 17.8883 17.7023 18.5672 17.5673C19.2461 17.4322 19.9499 17.5015 20.5894 17.7664C21.2289 18.0313 21.7756 18.4799 22.1601 19.0555C22.5447 19.6311 22.75 20.3078 22.75 21C22.7488 21.9279 22.3797 22.8175 21.7236 23.4736C21.0675 24.1297 20.1779 24.4988 19.25 24.5Z" fill="white"/>
<path d="M10.5 24.5H6.125V6.125H8.75V8.75H19.25V6.125H21.875V14H23.625V6.125C23.625 5.66087 23.4406 5.21575 23.1124 4.88756C22.7842 4.55937 22.3391 4.375 21.875 4.375H19.25V3.5C19.25 3.03587 19.0656 2.59075 18.7374 2.26256C18.4092 1.93437 17.9641 1.75 17.5 1.75H10.5C10.0359 1.75 9.59075 1.93437 9.26256 2.26256C8.93437 2.59075 8.75 3.03587 8.75 3.5V4.375H6.125C5.66087 4.375 5.21575 4.55937 4.88756 4.88756C4.55937 5.21575 4.375 5.66087 4.375 6.125V24.5C4.375 24.9641 4.55937 25.4092 4.88756 25.7374C5.21575 26.0656 5.66087 26.25 6.125 26.25H10.5V24.5ZM10.5 3.5H17.5V7H10.5V3.5Z" fill="white"/>
</svg>
